<?xml version="1.0" encoding="UTF-8" standalone="no"?>
<!-- Created with Inkscape (http://www.inkscape.org/) -->

<svg
   width="835.37512"
   height="300"
   viewBox="0 0 221.02633 79.375002"
   version="1.1"
   id="svg5"
   inkscape:version="1.1 (1:1.1+202105261517+ce6663b3b7)"
   sodipodi:docname="fond.svg"
   xmlns:inkscape="http://www.inkscape.org/namespaces/inkscape"
   xmlns:sodipodi="http://sodipodi.sourceforge.net/DTD/sodipodi-0.dtd"
   xmlns="http://www.w3.org/2000/svg"
   xmlns:svg="http://www.w3.org/2000/svg">
  <sodipodi:namedview
     id="namedview7"
     pagecolor="#ffffff"
     bordercolor="#666666"
     borderopacity="1.0"
     inkscape:pageshadow="2"
     inkscape:pageopacity="0"
     inkscape:pagecheckerboard="0"
     inkscape:document-units="mm"
     showgrid="false"
     units="px"
     width="800px"
     inkscape:zoom="2.1266376"
     inkscape:cx="688.17555"
     inkscape:cy="161.05236"
     inkscape:window-width="1920"
     inkscape:window-height="1016"
     inkscape:window-x="0"
     inkscape:window-y="27"
     inkscape:window-maximized="1"
     inkscape:current-layer="layer1"
     fit-margin-top="0"
     fit-margin-left="0"
     fit-margin-right="0"
     fit-margin-bottom="0"
     inkscape:snap-global="false"
     height="300px" />
  <defs
     id="defs2" />
  <g
     inkscape:label="Calque 1"
     inkscape:groupmode="layer"
     id="layer1"
     transform="translate(0.2787416,-25.268284)">
    <rect
       style="fill:#c6bebb;fill-opacity:1;stroke:none;stroke-width:0.190035"
       id="rect846"
       width="225.03288"
       height="90.274422"
       x="-3.5724134"
       y="20.535269" />
    <g
       id="g24"
       transform="matrix(0.31400528,0,0,0.31400528,176.77887,68.645333)"
       style="fill:#68a6b3;fill-opacity:1">
      <path
         d="m 50,13.9 c 10.8,0 16.8,-1.4 17.1,-2.2 C 66.8,11 60.8,9.6 50,9.6 39.2,9.6 33.2,11 32.9,11.8 c 0.3,0.7 6.3,2.1 17.1,2.1 z"
         id="path2"
         style="fill:#68a6b3;fill-opacity:1" />
      <path
         d="m 65.2,24.3 c 5,-0.4 7.7,-1.3 7.8,-1.8 v 0 -2.1 c -0.3,0.2 -0.6,0.3 -1,0.4 -0.6,0.2 -1.3,0.4 -2,0.5 -1.5,0.3 -3.2,0.5 -4.8,0.6 -0.3,0 -0.7,0 -1,0.1 -1.2,0 -2.4,0.1 -3.2,0.1 v 2.4 c 1.2,0 2.3,-0.1 3.3,-0.1 0.3,-0.1 0.6,-0.1 0.9,-0.1 z"
         id="path4"
         style="fill:#68a6b3;fill-opacity:1" />
      <path
         d="m 65.2,17.9 v 1.7 c 1.8,0.1 3.4,0.4 4.8,0.6 1.9,-0.4 3,-0.8 3.1,-1.2 v 0 c -0.1,-0.3 -1.8,-1.2 -6.3,-1.7 -0.5,0.3 -1,0.5 -1.6,0.6 z"
         id="path6"
         style="fill:#68a6b3;fill-opacity:1" />
      <path
         d="m 39,25.5 c -0.9,0 -2,-0.1 -3.3,-0.1 v 1.9 h 0.1 c 0,0.6 4.3,2.2 14.1,2.2 9.8,0 14.1,-1.6 14.1,-2.2 h 0.1 v -1.9 c -1.3,0.1 -2.4,0.1 -3.3,0.1 -0.4,0 -0.7,0 -1,0 v -4.4 c 0.3,0 0.7,0 1,0 1.2,0 2.3,-0.1 3.3,-0.1 v -2.8 c -5.2,1.1 -13.7,1.1 -14.2,1.1 -0.5,0 -9.1,0 -14.2,-1.1 V 21 c 1,0.1 2.1,0.1 3.3,0.1 0.3,0 0.7,0 1,0 v 4.4 c -0.2,0 -0.6,0 -1,0 z"
         id="path8"
         style="fill:#68a6b3;fill-opacity:1" />
      <path
         d="m 50,18.3 c 7.5,0 12.6,-0.7 15.2,-1.3 0.7,-0.2 2,-0.9 2,-0.9 V 12.9 C 63.7,15 50.6,15 50,15 49.4,15 36.3,15 32.8,12.9 v 3.4 c 0.2,0.1 1,0.3 1.3,0.4 2.2,0.7 7.6,1.6 15.9,1.6 z"
         id="path10"
         style="fill:#68a6b3;fill-opacity:1" />
      <path
         d="m 23.5,83.6 v 3.3 c 0,1.2 9.1,3.6 26.5,3.6 17.4,0 26.5,-2.3 26.5,-3.6 v -3.3 c -3.7,2.3 -17,3.2 -26.5,3.2 -9.5,0 -22.7,-0.9 -26.5,-3.2 z"
         id="path12"
         style="fill:#68a6b3;fill-opacity:1" />
      <path
         d="m 30,20.2 c 1.3,-0.3 3,-0.5 4.8,-0.6 v -1.7 c -0.6,-0.2 -1.1,-0.3 -1.5,-0.5 -4.6,0.5 -6.2,1.3 -6.3,1.7 v 0 c 0,0.3 1.1,0.8 3,1.1 z"
         id="path14"
         style="fill:#68a6b3;fill-opacity:1" />
      <path
         d="m 74.4,80.1 v 0 C 71.2,82.3 58.7,83.2 50,83.2 41.3,83.2 28.7,82.3 25.6,80 v 0.1 l -2,1.8 v 0.3 c 0,1.2 9.1,3.6 26.5,3.6 17.4,0 26.5,-2.3 26.5,-3.6 v -0.3 z"
         id="path16"
         style="fill:#68a6b3;fill-opacity:1" />
      <path
         d="m 50,82.2 c 13.7,0 21.8,-1.6 23.7,-2.8 0.3,-0.2 0.7,-0.5 0.7,-0.5 V 39.1 c -3.2,2.3 -15.7,3.1 -24.4,3.1 -8.7,0 -21.3,-0.9 -24.4,-3.1 v 39.8 c 0,0 0.4,0.3 0.6,0.5 1.8,1.1 9.9,2.8 23.8,2.8 z"
         id="path18"
         style="fill:#68a6b3;fill-opacity:1" />
      <path
         d="m 34.8,24.3 c 0.3,0 0.7,0 1,0.1 1,0.1 2.1,0.1 3.3,0.1 v -2.4 c -0.9,0 -2,-0.1 -3.3,-0.1 -0.3,0 -0.7,0 -1,-0.1 C 33.2,21.8 31.5,21.6 30,21.3 29.3,21.2 28.6,21 28,20.8 27.6,20.7 27.3,20.5 27,20.4 v 2.1 c 0,0 0,0 0,0 0.1,0.5 2.8,1.3 7.8,1.8 z"
         id="path20"
         style="fill:#68a6b3;fill-opacity:1" />
      <path
         d="m 50,41.2 c 15.9,0 24.2,-2.1 24.2,-3.3 L 74.4,37.6 64.8,28 C 63,29.9 54.7,30.4 50,30.4 45.3,30.4 37,29.9 35.2,28 l -9.7,9.6 0.2,0.3 c 0.1,1.2 8.4,3.3 24.3,3.3 z"
         id="path22"
         style="fill:#68a6b3;fill-opacity:1" />
    </g>
  </g>
</svg>
